<mxfile host="app.diagrams.net" agent="Mozilla/5.0 (Windows NT 10.0; Win64; x64) AppleWebKit/537.36 (KHTML, like Gecko) Chrome/133.0.0.0 Safari/537.36" version="26.0.16">
  <diagram name="Page-1" id="LMTEHGxl9xAV5gzKQ1Dk">
    <mxGraphModel dx="1769" dy="1340" grid="1" gridSize="10" guides="1" tooltips="1" connect="1" arrows="1" fold="1" page="1" pageScale="1" pageWidth="827" pageHeight="1169" math="0" shadow="0">
      <root>
        <mxCell id="0" />
        <mxCell id="1" parent="0" />
        <mxCell id="AaeAX8En4a37BMTDVeuW-1" value="1. Global Execution context" style="text;html=1;align=center;verticalAlign=middle;resizable=0;points=[];autosize=1;strokeColor=none;fillColor=none;" vertex="1" parent="1">
          <mxGeometry x="160" y="290" width="170" height="30" as="geometry" />
        </mxCell>
        <mxCell id="AaeAX8En4a37BMTDVeuW-5" value="" style="group" vertex="1" connectable="0" parent="1">
          <mxGeometry x="80" y="330" width="140" height="240" as="geometry" />
        </mxCell>
        <mxCell id="AaeAX8En4a37BMTDVeuW-3" value="" style="rounded=0;whiteSpace=wrap;html=1;" vertex="1" parent="AaeAX8En4a37BMTDVeuW-5">
          <mxGeometry y="34.285714285714285" width="140" height="205.7142857142857" as="geometry" />
        </mxCell>
        <mxCell id="AaeAX8En4a37BMTDVeuW-4" value="1. Memory Creation" style="text;html=1;align=center;verticalAlign=middle;resizable=0;points=[];autosize=1;strokeColor=none;fillColor=none;" vertex="1" parent="AaeAX8En4a37BMTDVeuW-5">
          <mxGeometry x="5" width="130" height="30" as="geometry" />
        </mxCell>
        <mxCell id="AaeAX8En4a37BMTDVeuW-11" value="val1 = undefined" style="text;html=1;align=center;verticalAlign=middle;resizable=0;points=[];autosize=1;strokeColor=none;fillColor=none;" vertex="1" parent="AaeAX8En4a37BMTDVeuW-5">
          <mxGeometry x="15" y="45.71428571428571" width="110" height="30" as="geometry" />
        </mxCell>
        <mxCell id="AaeAX8En4a37BMTDVeuW-12" value="val2 = undefined" style="text;html=1;align=center;verticalAlign=middle;resizable=0;points=[];autosize=1;strokeColor=none;fillColor=none;" vertex="1" parent="AaeAX8En4a37BMTDVeuW-5">
          <mxGeometry x="15" y="80" width="110" height="30" as="geometry" />
        </mxCell>
        <mxCell id="AaeAX8En4a37BMTDVeuW-13" value="fun = defination" style="text;html=1;align=center;verticalAlign=middle;resizable=0;points=[];autosize=1;strokeColor=none;fillColor=none;" vertex="1" parent="AaeAX8En4a37BMTDVeuW-5">
          <mxGeometry x="15" y="114.28571428571428" width="110" height="30" as="geometry" />
        </mxCell>
        <mxCell id="AaeAX8En4a37BMTDVeuW-14" value="result1 = defination" style="text;html=1;align=center;verticalAlign=middle;resizable=0;points=[];autosize=1;strokeColor=none;fillColor=none;" vertex="1" parent="AaeAX8En4a37BMTDVeuW-5">
          <mxGeometry x="5" y="160" width="130" height="30" as="geometry" />
        </mxCell>
        <mxCell id="AaeAX8En4a37BMTDVeuW-90" value="fun2 = defination" style="text;html=1;align=center;verticalAlign=middle;resizable=0;points=[];autosize=1;strokeColor=none;fillColor=none;" vertex="1" parent="AaeAX8En4a37BMTDVeuW-5">
          <mxGeometry x="30" y="137.14285714285714" width="110" height="30" as="geometry" />
        </mxCell>
        <mxCell id="AaeAX8En4a37BMTDVeuW-113" value="result2 = defination" style="text;html=1;align=center;verticalAlign=middle;resizable=0;points=[];autosize=1;strokeColor=none;fillColor=none;" vertex="1" parent="AaeAX8En4a37BMTDVeuW-5">
          <mxGeometry x="10" y="179.9957142857142" width="130" height="30" as="geometry" />
        </mxCell>
        <mxCell id="AaeAX8En4a37BMTDVeuW-15" value="result3 = defination" style="text;html=1;align=center;verticalAlign=middle;resizable=0;points=[];autosize=1;strokeColor=none;fillColor=none;" vertex="1" parent="AaeAX8En4a37BMTDVeuW-5">
          <mxGeometry x="5" y="209.99571428571429" width="130" height="30" as="geometry" />
        </mxCell>
        <mxCell id="AaeAX8En4a37BMTDVeuW-7" value="" style="group" vertex="1" connectable="0" parent="1">
          <mxGeometry x="253" y="330" width="160" height="240" as="geometry" />
        </mxCell>
        <mxCell id="AaeAX8En4a37BMTDVeuW-8" value="" style="rounded=0;whiteSpace=wrap;html=1;" vertex="1" parent="AaeAX8En4a37BMTDVeuW-7">
          <mxGeometry y="30" width="140" height="210" as="geometry" />
        </mxCell>
        <mxCell id="AaeAX8En4a37BMTDVeuW-9" value="1. Execution" style="text;html=1;align=center;verticalAlign=middle;resizable=0;points=[];autosize=1;strokeColor=none;fillColor=none;" vertex="1" parent="AaeAX8En4a37BMTDVeuW-7">
          <mxGeometry x="25" width="90" height="30" as="geometry" />
        </mxCell>
        <mxCell id="AaeAX8En4a37BMTDVeuW-16" value="val1 = 10" style="text;html=1;align=center;verticalAlign=middle;resizable=0;points=[];autosize=1;strokeColor=none;fillColor=none;" vertex="1" parent="AaeAX8En4a37BMTDVeuW-7">
          <mxGeometry x="35" y="40" width="70" height="30" as="geometry" />
        </mxCell>
        <mxCell id="AaeAX8En4a37BMTDVeuW-17" value="val2 = 20" style="text;html=1;align=center;verticalAlign=middle;resizable=0;points=[];autosize=1;strokeColor=none;fillColor=none;" vertex="1" parent="AaeAX8En4a37BMTDVeuW-7">
          <mxGeometry x="35" y="70" width="70" height="30" as="geometry" />
        </mxCell>
        <mxCell id="AaeAX8En4a37BMTDVeuW-18" value="fun = defination" style="text;html=1;align=center;verticalAlign=middle;resizable=0;points=[];autosize=1;strokeColor=none;fillColor=none;" vertex="1" parent="AaeAX8En4a37BMTDVeuW-7">
          <mxGeometry x="15" y="100" width="110" height="30" as="geometry" />
        </mxCell>
        <mxCell id="AaeAX8En4a37BMTDVeuW-20" value="result1 = fun(val1, val2)&lt;div&gt;&amp;nbsp;=&amp;nbsp;&lt;span style=&quot;background-color: transparent; color: light-dark(rgb(0, 0, 0), rgb(255, 255, 255));&quot;&gt;30&lt;/span&gt;&lt;/div&gt;" style="text;html=1;align=center;verticalAlign=middle;resizable=0;points=[];autosize=1;strokeColor=none;fillColor=none;" vertex="1" parent="AaeAX8En4a37BMTDVeuW-7">
          <mxGeometry x="-5" y="125" width="150" height="40" as="geometry" />
        </mxCell>
        <mxCell id="AaeAX8En4a37BMTDVeuW-42" value="result2 =&amp;nbsp;" style="text;html=1;align=center;verticalAlign=middle;resizable=0;points=[];autosize=1;strokeColor=none;fillColor=none;" vertex="1" parent="AaeAX8En4a37BMTDVeuW-7">
          <mxGeometry x="7" y="165" width="70" height="30" as="geometry" />
        </mxCell>
        <mxCell id="AaeAX8En4a37BMTDVeuW-114" value="r4esult3 =" style="text;html=1;align=center;verticalAlign=middle;resizable=0;points=[];autosize=1;strokeColor=none;fillColor=none;" vertex="1" parent="AaeAX8En4a37BMTDVeuW-7">
          <mxGeometry x="2" y="195" width="80" height="30" as="geometry" />
        </mxCell>
        <mxCell id="AaeAX8En4a37BMTDVeuW-10" value="val1 = undefined" style="text;html=1;align=center;verticalAlign=middle;resizable=0;points=[];autosize=1;strokeColor=none;fillColor=none;" vertex="1" parent="1">
          <mxGeometry x="65" y="238" width="110" height="30" as="geometry" />
        </mxCell>
        <mxCell id="AaeAX8En4a37BMTDVeuW-24" style="edgeStyle=orthogonalEdgeStyle;rounded=0;orthogonalLoop=1;jettySize=auto;html=1;entryX=1;entryY=0.59;entryDx=0;entryDy=0;entryPerimeter=0;" edge="1" parent="1" source="AaeAX8En4a37BMTDVeuW-21" target="AaeAX8En4a37BMTDVeuW-20">
          <mxGeometry relative="1" as="geometry" />
        </mxCell>
        <mxCell id="AaeAX8En4a37BMTDVeuW-41" value="" style="group" vertex="1" connectable="0" parent="1">
          <mxGeometry x="560" y="270" width="420" height="256" as="geometry" />
        </mxCell>
        <mxCell id="AaeAX8En4a37BMTDVeuW-91" style="edgeStyle=orthogonalEdgeStyle;rounded=0;orthogonalLoop=1;jettySize=auto;html=1;" edge="1" parent="AaeAX8En4a37BMTDVeuW-41" source="AaeAX8En4a37BMTDVeuW-21">
          <mxGeometry relative="1" as="geometry">
            <mxPoint x="460" y="140.99999999999977" as="targetPoint" />
          </mxGeometry>
        </mxCell>
        <mxCell id="AaeAX8En4a37BMTDVeuW-21" value="" style="rounded=1;whiteSpace=wrap;html=1;" vertex="1" parent="AaeAX8En4a37BMTDVeuW-41">
          <mxGeometry y="26" width="420" height="230" as="geometry" />
        </mxCell>
        <mxCell id="AaeAX8En4a37BMTDVeuW-40" value="" style="group" vertex="1" connectable="0" parent="AaeAX8En4a37BMTDVeuW-41">
          <mxGeometry x="60" width="310" height="246" as="geometry" />
        </mxCell>
        <mxCell id="AaeAX8En4a37BMTDVeuW-2" value="2. functional Execution context" style="text;html=1;align=center;verticalAlign=middle;resizable=0;points=[];autosize=1;strokeColor=none;fillColor=none;" vertex="1" parent="AaeAX8En4a37BMTDVeuW-40">
          <mxGeometry x="60" width="190" height="30" as="geometry" />
        </mxCell>
        <mxCell id="AaeAX8En4a37BMTDVeuW-25" value="" style="group" vertex="1" connectable="0" parent="AaeAX8En4a37BMTDVeuW-40">
          <mxGeometry y="36" width="140" height="210" as="geometry" />
        </mxCell>
        <mxCell id="AaeAX8En4a37BMTDVeuW-26" value="" style="rounded=0;whiteSpace=wrap;html=1;" vertex="1" parent="AaeAX8En4a37BMTDVeuW-25">
          <mxGeometry y="30" width="140" height="180" as="geometry" />
        </mxCell>
        <mxCell id="AaeAX8En4a37BMTDVeuW-27" value="1. Memory Creation" style="text;html=1;align=center;verticalAlign=middle;resizable=0;points=[];autosize=1;strokeColor=none;fillColor=none;" vertex="1" parent="AaeAX8En4a37BMTDVeuW-25">
          <mxGeometry x="5" width="130" height="30" as="geometry" />
        </mxCell>
        <mxCell id="AaeAX8En4a37BMTDVeuW-28" value="num1 = undined" style="text;html=1;align=center;verticalAlign=middle;resizable=0;points=[];autosize=1;strokeColor=none;fillColor=none;" vertex="1" parent="AaeAX8En4a37BMTDVeuW-25">
          <mxGeometry x="15" y="40" width="110" height="30" as="geometry" />
        </mxCell>
        <mxCell id="AaeAX8En4a37BMTDVeuW-33" value="num2 = undined" style="text;html=1;align=center;verticalAlign=middle;resizable=0;points=[];autosize=1;strokeColor=none;fillColor=none;" vertex="1" parent="AaeAX8En4a37BMTDVeuW-25">
          <mxGeometry x="15" y="80" width="110" height="30" as="geometry" />
        </mxCell>
        <mxCell id="AaeAX8En4a37BMTDVeuW-34" value="result = undined" style="text;html=1;align=center;verticalAlign=middle;resizable=0;points=[];autosize=1;strokeColor=none;fillColor=none;" vertex="1" parent="AaeAX8En4a37BMTDVeuW-25">
          <mxGeometry x="15" y="110" width="110" height="30" as="geometry" />
        </mxCell>
        <mxCell id="AaeAX8En4a37BMTDVeuW-35" value="" style="rounded=0;whiteSpace=wrap;html=1;" vertex="1" parent="AaeAX8En4a37BMTDVeuW-40">
          <mxGeometry x="170" y="60" width="140" height="180" as="geometry" />
        </mxCell>
        <mxCell id="AaeAX8En4a37BMTDVeuW-36" value="2. Execution" style="text;html=1;align=center;verticalAlign=middle;resizable=0;points=[];autosize=1;strokeColor=none;fillColor=none;" vertex="1" parent="AaeAX8En4a37BMTDVeuW-40">
          <mxGeometry x="190" y="30" width="90" height="30" as="geometry" />
        </mxCell>
        <mxCell id="AaeAX8En4a37BMTDVeuW-37" value="num1 = 10" style="text;html=1;align=center;verticalAlign=middle;resizable=0;points=[];autosize=1;strokeColor=none;fillColor=none;" vertex="1" parent="AaeAX8En4a37BMTDVeuW-40">
          <mxGeometry x="205" y="76" width="80" height="30" as="geometry" />
        </mxCell>
        <mxCell id="AaeAX8En4a37BMTDVeuW-38" value="num2 = 20" style="text;html=1;align=center;verticalAlign=middle;resizable=0;points=[];autosize=1;strokeColor=none;fillColor=none;" vertex="1" parent="AaeAX8En4a37BMTDVeuW-40">
          <mxGeometry x="200" y="106" width="80" height="30" as="geometry" />
        </mxCell>
        <mxCell id="AaeAX8En4a37BMTDVeuW-39" value="result = 30" style="text;html=1;align=center;verticalAlign=middle;resizable=0;points=[];autosize=1;strokeColor=none;fillColor=none;" vertex="1" parent="AaeAX8En4a37BMTDVeuW-40">
          <mxGeometry x="200" y="136" width="80" height="30" as="geometry" />
        </mxCell>
        <mxCell id="AaeAX8En4a37BMTDVeuW-44" value="" style="group" vertex="1" connectable="0" parent="1">
          <mxGeometry x="840" y="550" width="420" height="256" as="geometry" />
        </mxCell>
        <mxCell id="AaeAX8En4a37BMTDVeuW-45" value="" style="rounded=1;whiteSpace=wrap;html=1;" vertex="1" parent="AaeAX8En4a37BMTDVeuW-44">
          <mxGeometry y="26" width="420" height="230" as="geometry" />
        </mxCell>
        <mxCell id="AaeAX8En4a37BMTDVeuW-46" value="" style="group" vertex="1" connectable="0" parent="AaeAX8En4a37BMTDVeuW-44">
          <mxGeometry x="60" width="310" height="246" as="geometry" />
        </mxCell>
        <mxCell id="AaeAX8En4a37BMTDVeuW-47" value="2. functional Execution context" style="text;html=1;align=center;verticalAlign=middle;resizable=0;points=[];autosize=1;strokeColor=none;fillColor=none;" vertex="1" parent="AaeAX8En4a37BMTDVeuW-46">
          <mxGeometry x="60" width="190" height="30" as="geometry" />
        </mxCell>
        <mxCell id="AaeAX8En4a37BMTDVeuW-48" value="" style="group" vertex="1" connectable="0" parent="AaeAX8En4a37BMTDVeuW-46">
          <mxGeometry y="36" width="140" height="210" as="geometry" />
        </mxCell>
        <mxCell id="AaeAX8En4a37BMTDVeuW-49" value="" style="rounded=0;whiteSpace=wrap;html=1;" vertex="1" parent="AaeAX8En4a37BMTDVeuW-48">
          <mxGeometry y="30" width="140" height="180" as="geometry" />
        </mxCell>
        <mxCell id="AaeAX8En4a37BMTDVeuW-50" value="1. Memory Creation" style="text;html=1;align=center;verticalAlign=middle;resizable=0;points=[];autosize=1;strokeColor=none;fillColor=none;" vertex="1" parent="AaeAX8En4a37BMTDVeuW-48">
          <mxGeometry x="5" width="130" height="30" as="geometry" />
        </mxCell>
        <mxCell id="AaeAX8En4a37BMTDVeuW-51" value="num1 = undined" style="text;html=1;align=center;verticalAlign=middle;resizable=0;points=[];autosize=1;strokeColor=none;fillColor=none;" vertex="1" parent="AaeAX8En4a37BMTDVeuW-48">
          <mxGeometry x="15" y="40" width="110" height="30" as="geometry" />
        </mxCell>
        <mxCell id="AaeAX8En4a37BMTDVeuW-52" value="num2 = undined" style="text;html=1;align=center;verticalAlign=middle;resizable=0;points=[];autosize=1;strokeColor=none;fillColor=none;" vertex="1" parent="AaeAX8En4a37BMTDVeuW-48">
          <mxGeometry x="15" y="80" width="110" height="30" as="geometry" />
        </mxCell>
        <mxCell id="AaeAX8En4a37BMTDVeuW-53" value="result = undined" style="text;html=1;align=center;verticalAlign=middle;resizable=0;points=[];autosize=1;strokeColor=none;fillColor=none;" vertex="1" parent="AaeAX8En4a37BMTDVeuW-48">
          <mxGeometry x="15" y="110" width="110" height="30" as="geometry" />
        </mxCell>
        <mxCell id="AaeAX8En4a37BMTDVeuW-54" value="" style="rounded=0;whiteSpace=wrap;html=1;" vertex="1" parent="AaeAX8En4a37BMTDVeuW-46">
          <mxGeometry x="170" y="60" width="140" height="180" as="geometry" />
        </mxCell>
        <mxCell id="AaeAX8En4a37BMTDVeuW-55" value="2. Execution" style="text;html=1;align=center;verticalAlign=middle;resizable=0;points=[];autosize=1;strokeColor=none;fillColor=none;" vertex="1" parent="AaeAX8En4a37BMTDVeuW-46">
          <mxGeometry x="190" y="30" width="90" height="30" as="geometry" />
        </mxCell>
        <mxCell id="AaeAX8En4a37BMTDVeuW-56" value="num1 = 40" style="text;html=1;align=center;verticalAlign=middle;resizable=0;points=[];autosize=1;strokeColor=none;fillColor=none;" vertex="1" parent="AaeAX8En4a37BMTDVeuW-46">
          <mxGeometry x="205" y="76" width="80" height="30" as="geometry" />
        </mxCell>
        <mxCell id="AaeAX8En4a37BMTDVeuW-57" value="num2 = 70" style="text;html=1;align=center;verticalAlign=middle;resizable=0;points=[];autosize=1;strokeColor=none;fillColor=none;" vertex="1" parent="AaeAX8En4a37BMTDVeuW-46">
          <mxGeometry x="200" y="106" width="80" height="30" as="geometry" />
        </mxCell>
        <mxCell id="AaeAX8En4a37BMTDVeuW-58" value="result = 110" style="text;html=1;align=center;verticalAlign=middle;resizable=0;points=[];autosize=1;strokeColor=none;fillColor=none;" vertex="1" parent="AaeAX8En4a37BMTDVeuW-46">
          <mxGeometry x="195" y="136" width="90" height="30" as="geometry" />
        </mxCell>
        <mxCell id="AaeAX8En4a37BMTDVeuW-89" style="edgeStyle=orthogonalEdgeStyle;rounded=0;orthogonalLoop=1;jettySize=auto;html=1;" edge="1" parent="1" source="AaeAX8En4a37BMTDVeuW-45" target="AaeAX8En4a37BMTDVeuW-8">
          <mxGeometry relative="1" as="geometry">
            <mxPoint x="410" y="510.0000000000002" as="targetPoint" />
            <Array as="points">
              <mxPoint x="510" y="620" />
              <mxPoint x="510" y="510" />
            </Array>
          </mxGeometry>
        </mxCell>
        <mxCell id="AaeAX8En4a37BMTDVeuW-92" value="" style="group" vertex="1" connectable="0" parent="1">
          <mxGeometry x="1020" y="270" width="420" height="256" as="geometry" />
        </mxCell>
        <mxCell id="AaeAX8En4a37BMTDVeuW-93" value="" style="rounded=1;whiteSpace=wrap;html=1;" vertex="1" parent="AaeAX8En4a37BMTDVeuW-92">
          <mxGeometry y="26" width="420" height="230" as="geometry" />
        </mxCell>
        <mxCell id="AaeAX8En4a37BMTDVeuW-94" value="" style="group" vertex="1" connectable="0" parent="AaeAX8En4a37BMTDVeuW-92">
          <mxGeometry x="60" width="310" height="246" as="geometry" />
        </mxCell>
        <mxCell id="AaeAX8En4a37BMTDVeuW-95" value="2. functional Execution context" style="text;html=1;align=center;verticalAlign=middle;resizable=0;points=[];autosize=1;strokeColor=none;fillColor=none;" vertex="1" parent="AaeAX8En4a37BMTDVeuW-94">
          <mxGeometry x="60" width="190" height="30" as="geometry" />
        </mxCell>
        <mxCell id="AaeAX8En4a37BMTDVeuW-96" value="" style="group" vertex="1" connectable="0" parent="AaeAX8En4a37BMTDVeuW-94">
          <mxGeometry y="36" width="140" height="210" as="geometry" />
        </mxCell>
        <mxCell id="AaeAX8En4a37BMTDVeuW-97" value="" style="rounded=0;whiteSpace=wrap;html=1;" vertex="1" parent="AaeAX8En4a37BMTDVeuW-96">
          <mxGeometry y="30" width="140" height="180" as="geometry" />
        </mxCell>
        <mxCell id="AaeAX8En4a37BMTDVeuW-98" value="1. Memory Creation" style="text;html=1;align=center;verticalAlign=middle;resizable=0;points=[];autosize=1;strokeColor=none;fillColor=none;" vertex="1" parent="AaeAX8En4a37BMTDVeuW-96">
          <mxGeometry x="5" width="130" height="30" as="geometry" />
        </mxCell>
        <mxCell id="AaeAX8En4a37BMTDVeuW-101" value="res&amp;nbsp; undefined" style="text;html=1;align=center;verticalAlign=middle;resizable=0;points=[];autosize=1;strokeColor=none;fillColor=none;" vertex="1" parent="AaeAX8En4a37BMTDVeuW-96">
          <mxGeometry x="20" y="110" width="100" height="30" as="geometry" />
        </mxCell>
        <mxCell id="AaeAX8En4a37BMTDVeuW-102" value="" style="rounded=0;whiteSpace=wrap;html=1;" vertex="1" parent="AaeAX8En4a37BMTDVeuW-94">
          <mxGeometry x="170" y="60" width="140" height="180" as="geometry" />
        </mxCell>
        <mxCell id="AaeAX8En4a37BMTDVeuW-103" value="2. Execution" style="text;html=1;align=center;verticalAlign=middle;resizable=0;points=[];autosize=1;strokeColor=none;fillColor=none;" vertex="1" parent="AaeAX8En4a37BMTDVeuW-94">
          <mxGeometry x="190" y="30" width="90" height="30" as="geometry" />
        </mxCell>
        <mxCell id="AaeAX8En4a37BMTDVeuW-104" value="res = 30" style="text;html=1;align=center;verticalAlign=middle;resizable=0;points=[];autosize=1;strokeColor=none;fillColor=none;" vertex="1" parent="AaeAX8En4a37BMTDVeuW-94">
          <mxGeometry x="210" y="76" width="70" height="30" as="geometry" />
        </mxCell>
        <mxCell id="AaeAX8En4a37BMTDVeuW-107" value="" style="rounded=1;whiteSpace=wrap;html=1;" vertex="1" parent="1">
          <mxGeometry x="690" y="1120" width="240" height="420" as="geometry" />
        </mxCell>
        <mxCell id="AaeAX8En4a37BMTDVeuW-109" value="Glkobal" style="text;html=1;align=center;verticalAlign=middle;resizable=0;points=[];autosize=1;strokeColor=none;fillColor=none;" vertex="1" parent="1">
          <mxGeometry x="770" y="1490" width="60" height="30" as="geometry" />
        </mxCell>
        <mxCell id="AaeAX8En4a37BMTDVeuW-110" value="fun1&lt;div&gt;&lt;br&gt;&lt;/div&gt;" style="text;html=1;align=center;verticalAlign=middle;resizable=0;points=[];autosize=1;strokeColor=none;fillColor=none;" vertex="1" parent="1">
          <mxGeometry x="1300" y="1440" width="50" height="40" as="geometry" />
        </mxCell>
        <mxCell id="AaeAX8En4a37BMTDVeuW-115" value="" style="rounded=1;whiteSpace=wrap;html=1;" vertex="1" parent="1">
          <mxGeometry x="330" y="750" width="420" height="230" as="geometry" />
        </mxCell>
        <mxCell id="AaeAX8En4a37BMTDVeuW-116" value="" style="group" vertex="1" connectable="0" parent="1">
          <mxGeometry x="390" y="760" width="140" height="210" as="geometry" />
        </mxCell>
        <mxCell id="AaeAX8En4a37BMTDVeuW-117" value="" style="rounded=0;whiteSpace=wrap;html=1;" vertex="1" parent="AaeAX8En4a37BMTDVeuW-116">
          <mxGeometry y="30" width="140" height="180" as="geometry" />
        </mxCell>
        <mxCell id="AaeAX8En4a37BMTDVeuW-118" value="1. Memory Creation" style="text;html=1;align=center;verticalAlign=middle;resizable=0;points=[];autosize=1;strokeColor=none;fillColor=none;" vertex="1" parent="AaeAX8En4a37BMTDVeuW-116">
          <mxGeometry x="5" width="130" height="30" as="geometry" />
        </mxCell>
        <mxCell id="AaeAX8En4a37BMTDVeuW-119" value="num1 = undined" style="text;html=1;align=center;verticalAlign=middle;resizable=0;points=[];autosize=1;strokeColor=none;fillColor=none;" vertex="1" parent="AaeAX8En4a37BMTDVeuW-116">
          <mxGeometry x="15" y="40" width="110" height="30" as="geometry" />
        </mxCell>
        <mxCell id="AaeAX8En4a37BMTDVeuW-120" value="num2 = undined" style="text;html=1;align=center;verticalAlign=middle;resizable=0;points=[];autosize=1;strokeColor=none;fillColor=none;" vertex="1" parent="AaeAX8En4a37BMTDVeuW-116">
          <mxGeometry x="15" y="80" width="110" height="30" as="geometry" />
        </mxCell>
        <mxCell id="AaeAX8En4a37BMTDVeuW-121" value="result = undined" style="text;html=1;align=center;verticalAlign=middle;resizable=0;points=[];autosize=1;strokeColor=none;fillColor=none;" vertex="1" parent="AaeAX8En4a37BMTDVeuW-116">
          <mxGeometry x="15" y="110" width="110" height="30" as="geometry" />
        </mxCell>
        <mxCell id="AaeAX8En4a37BMTDVeuW-122" value="" style="rounded=0;whiteSpace=wrap;html=1;" vertex="1" parent="1">
          <mxGeometry x="560" y="784" width="140" height="180" as="geometry" />
        </mxCell>
        <mxCell id="AaeAX8En4a37BMTDVeuW-123" value="2. Execution" style="text;html=1;align=center;verticalAlign=middle;resizable=0;points=[];autosize=1;strokeColor=none;fillColor=none;" vertex="1" parent="1">
          <mxGeometry x="580" y="754" width="90" height="30" as="geometry" />
        </mxCell>
        <mxCell id="AaeAX8En4a37BMTDVeuW-124" value="num1 = 40" style="text;html=1;align=center;verticalAlign=middle;resizable=0;points=[];autosize=1;strokeColor=none;fillColor=none;" vertex="1" parent="1">
          <mxGeometry x="595" y="800" width="80" height="30" as="geometry" />
        </mxCell>
        <mxCell id="AaeAX8En4a37BMTDVeuW-125" value="num2 = 70" style="text;html=1;align=center;verticalAlign=middle;resizable=0;points=[];autosize=1;strokeColor=none;fillColor=none;" vertex="1" parent="1">
          <mxGeometry x="590" y="830" width="80" height="30" as="geometry" />
        </mxCell>
        <mxCell id="AaeAX8En4a37BMTDVeuW-126" value="result = 110" style="text;html=1;align=center;verticalAlign=middle;resizable=0;points=[];autosize=1;strokeColor=none;fillColor=none;" vertex="1" parent="1">
          <mxGeometry x="585" y="860" width="90" height="30" as="geometry" />
        </mxCell>
        <mxCell id="AaeAX8En4a37BMTDVeuW-127" style="edgeStyle=orthogonalEdgeStyle;rounded=0;orthogonalLoop=1;jettySize=auto;html=1;entryX=1.002;entryY=0.817;entryDx=0;entryDy=0;entryPerimeter=0;" edge="1" parent="1" source="AaeAX8En4a37BMTDVeuW-115" target="AaeAX8En4a37BMTDVeuW-8">
          <mxGeometry relative="1" as="geometry">
            <Array as="points">
              <mxPoint x="460" y="532" />
            </Array>
          </mxGeometry>
        </mxCell>
        <mxCell id="AaeAX8En4a37BMTDVeuW-128" value="fun2" style="text;html=1;align=center;verticalAlign=middle;resizable=0;points=[];autosize=1;strokeColor=none;fillColor=none;" vertex="1" parent="1">
          <mxGeometry x="1110" y="1440" width="50" height="30" as="geometry" />
        </mxCell>
        <mxCell id="AaeAX8En4a37BMTDVeuW-129" value="fun" style="text;html=1;align=center;verticalAlign=middle;resizable=0;points=[];autosize=1;strokeColor=none;fillColor=none;" vertex="1" parent="1">
          <mxGeometry x="1280" y="1320" width="40" height="30" as="geometry" />
        </mxCell>
        <mxCell id="AaeAX8En4a37BMTDVeuW-130" value="fun" style="text;html=1;align=center;verticalAlign=middle;resizable=0;points=[];autosize=1;strokeColor=none;fillColor=none;" vertex="1" parent="1">
          <mxGeometry x="800" y="1400" width="40" height="30" as="geometry" />
        </mxCell>
        <mxCell id="AaeAX8En4a37BMTDVeuW-131" style="edgeStyle=orthogonalEdgeStyle;rounded=0;orthogonalLoop=1;jettySize=auto;html=1;" edge="1" parent="1" source="AaeAX8En4a37BMTDVeuW-93" target="AaeAX8En4a37BMTDVeuW-90">
          <mxGeometry relative="1" as="geometry" />
        </mxCell>
      </root>
    </mxGraphModel>
  </diagram>
</mxfile>
